<?xml version="1.0" encoding="utf-8"?>
<!-- Generator: Adobe Illustrator 16.0.0, SVG Export Plug-In . SVG Version: 6.00 Build 0)  -->
<!DOCTYPE svg PUBLIC "-//W3C//DTD SVG 1.1//EN" "http://www.w3.org/Graphics/SVG/1.1/DTD/svg11.dtd">
<svg version="1.1" id="Layer_1" xmlns="http://www.w3.org/2000/svg" xmlns:xlink="http://www.w3.org/1999/xlink" x="0px" y="0px"
	 width="48px" height="46px" viewBox="0 0 48 46" enable-background="new 0 0 48 46" xml:space="preserve">
<g transform="translate(0.000000,46.000000) scale(0.100000,-0.100000)">
	<path fill="#FFFFFF" d="M97.002,432.002c-31.001-35-14.004-88.003,30-95c32.998-5,35.996-12.002,18.999-46.001
		C137.002,275,130,252.002,130,242.002c0-26.006-27.998-36.006-46.001-17.002c-21.997,21.001-50,18.999-66.997-5.996
		c-20-27.002-10-58.008,20-65c17.998-5,31.997,0.996,55,21.992c28.999,28.008,30.996,28.008,41.997,10
		c6.001-10,21.001-30,33.999-43.994l22.002-25l-22.002-11.006c-26.997-13.994-30.996-53.994-5.996-68.994
		c23.999-16.006,50.996,10,45.996,43.994c-3.999,23.008,0,28.008,25,33.008c16.006,2.998,32.998,5.996,37.998,5.996
		c11.006,0,23.008-39.004,24.004-75c0-25,4.004-30,25-30c32.998,0,40.996,39.004,10.996,54.004
		C297.998,87.002,295,117.002,324.004,155C337.998,172.998,350,195.996,350,205c0,23.999,27.998,30,50,10
		c22.998-20,64.004-14.004,74.004,11.001C482.998,248.999,454.004,290,430,290c-10.996,0-25-8.999-32.002-20
		C384.004,247.002,350,242.998,350,263.999c0,7.002-9.004,25-20.996,40c-18.008,23.003-18.008,27.002-5,31.001
		c8.994,2.998,22.998,7.002,31.992,10c20,6.001,15,43.999-7.998,57.998C325.996,417.998,300,395,300,361.001
		c0-25-2.002-26.001-60-26.001c-50,0-58.999,2.998-53.999,15c16.001,37.002,16.001,62.002-1.001,80
		C162.002,455,117.998,456.001,97.002,432.002z"/>
</g>
</svg>
